<?xml version="1.0" standalone="no"?>
<!DOCTYPE svg PUBLIC "-//W3C//DTD SVG 20010904//EN"
 "http://www.w3.org/TR/2001/REC-SVG-20010904/DTD/svg10.dtd">
<svg version="1.0" xmlns="http://www.w3.org/2000/svg"
 width="512.000000pt" height="512.000000pt" viewBox="0 0 512.000000 512.000000"
 preserveAspectRatio="xMidYMid meet">
<metadata>
Created by potrace 1.14, written by Peter Selinger 2001-2017
</metadata>
<g transform="translate(0.000000,512.000000) scale(0.100000,-0.100000)"
fill="#000000" stroke="none">
<path d="M2370 4215 l0 -35 -155 0 -155 0 0 -34 c0 -30 -4 -34 -31 -40 -17 -3
-58 -6 -90 -6 l-59 0 0 -35 0 -35 -55 0 -55 0 0 -35 0 -35 -65 0 -65 0 0 -30
c0 -27 -3 -30 -30 -30 -28 0 -30 -3 -30 -35 0 -33 -2 -35 -35 -35 -33 0 -35
-2 -35 -35 0 -33 -2 -35 -35 -35 -33 0 -35 -2 -35 -35 0 -32 -2 -35 -30 -35
-27 0 -30 -3 -30 -30 0 -28 -3 -30 -35 -30 -33 0 -35 -2 -35 -35 0 -33 -2 -35
-35 -35 l-35 0 0 -65 0 -65 -36 0 c-34 0 -35 -1 -32 -32 3 -31 1 -33 -29 -36
l-33 -3 0 -65 0 -64 -30 0 c-29 0 -30 -1 -30 -50 0 -49 -1 -50 -30 -50 l-30 0
0 -110 0 -110 -25 0 c-24 0 -25 -2 -25 -65 0 -64 0 -65 -27 -65 l-28 0 0 -218
0 -217 28 0 27 1 0 -153 0 -153 25 0 c25 0 25 0 25 -95 l0 -95 30 0 c28 0 30
-2 30 -40 0 -38 2 -40 30 -40 l30 0 0 -70 0 -70 30 0 c28 0 30 -2 30 -38 0
-36 1 -38 33 -37 30 0 32 -2 35 -37 3 -36 5 -38 38 -38 l34 0 0 -54 c0 -54 0
-55 33 -58 28 -3 32 -7 35 -35 3 -29 7 -33 33 -33 26 0 29 -3 29 -30 0 -28 3
-30 35 -30 32 0 35 -2 35 -29 0 -26 4 -30 33 -33 28 -3 32 -7 35 -35 3 -29 7
-33 33 -33 26 0 29 -3 29 -30 l0 -30 65 0 65 0 0 -29 c0 -29 2 -30 53 -33 50
-3 52 -4 49 -30 -3 -26 0 -28 33 -28 33 0 35 -2 35 -35 l0 -35 -155 0 -155 0
0 -35 0 -35 935 0 935 0 0 35 0 35 -155 0 -155 0 0 35 c0 32 2 35 30 35 27 0
30 3 30 30 0 30 1 30 55 30 54 0 55 0 55 30 l0 30 70 0 70 0 0 30 c0 27 3 30
30 30 28 0 30 3 30 35 l0 35 60 0 60 0 0 60 0 60 35 0 c32 0 35 2 35 30 0 25
4 30 25 30 20 0 25 5 25 25 0 21 5 25 30 25 28 0 30 3 30 35 0 32 2 35 30 35
28 0 30 3 30 35 0 33 2 35 35 35 34 0 35 1 35 40 0 36 3 40 25 40 22 0 25 4
25 35 l0 35 -139 0 -138 0 -7 -31 c-3 -17 -3 -35 0 -40 3 -5 41 -9 85 -9 l79
0 0 -30 0 -30 -75 0 c-72 0 -75 1 -75 24 0 24 -21 36 -66 36 -19 0 -22 -7 -29
-65 -6 -60 -8 -65 -31 -65 -20 0 -24 -5 -24 -29 0 -28 -2 -29 -65 -36 -60 -6
-65 -8 -65 -31 0 -20 -5 -24 -30 -24 -28 0 -30 -3 -30 -35 0 -30 -3 -35 -24
-35 -19 0 -25 -6 -28 -27 -2 -23 -8 -27 -33 -28 -26 0 -30 -4 -33 -32 -3 -29
-7 -33 -33 -33 -26 0 -29 -3 -29 -30 l0 -30 -65 0 -65 0 0 -30 0 -29 -77 -3
c-78 -3 -78 -3 -77 -30 l1 -28 -78 0 -79 0 0 -35 0 -35 -235 0 -235 0 0 30 c0
17 -6 31 -12 31 -7 1 -56 2 -108 3 l-95 1 -3 33 -3 32 -90 0 -89 0 0 30 0 30
-60 0 -60 0 0 30 0 30 -60 0 c-60 0 -60 0 -60 29 0 26 -4 30 -32 33 -29 3 -33
7 -36 36 l-3 32 -60 0 c-59 0 -59 0 -59 30 0 28 -3 30 -35 30 -32 0 -35 2 -35
30 0 27 -3 30 -30 30 -27 0 -30 3 -30 30 0 27 -3 30 -29 30 -26 0 -30 4 -33
32 -3 30 -6 33 -42 36 -36 3 -38 5 -34 33 4 26 1 29 -29 35 l-33 6 0 69 0 69
-29 0 c-27 0 -30 3 -33 38 -3 32 -7 37 -30 40 l-27 3 -3 97 c-3 92 -4 97 -25
100 -23 3 -23 6 -23 147 l0 144 -27 3 c-19 2 -28 9 -27 21 0 9 1 107 2 217 l2
200 25 0 c24 0 25 2 25 65 0 63 1 65 25 65 l25 0 0 110 0 110 30 0 c29 0 30 1
30 50 0 49 1 50 30 50 l30 0 0 65 0 65 29 0 c26 0 30 4 33 33 3 28 7 32 36 35
l32 3 0 65 0 64 35 0 c33 0 35 2 35 35 0 32 2 35 30 35 26 0 30 3 30 29 0 29
14 41 51 41 14 0 19 7 19 30 0 28 3 30 35 30 33 0 35 2 35 35 0 32 2 35 30 35
27 0 30 3 30 30 l0 30 90 0 90 0 0 40 0 40 60 0 60 0 0 35 0 35 65 0 c65 0 65
0 65 29 0 27 3 29 53 35 28 3 98 6 155 6 l102 0 0 35 0 35 180 0 180 0 0 -35
0 -35 83 0 c45 0 106 -3 135 -6 49 -6 52 -8 52 -35 l0 -29 91 0 91 0 -4 -35
-4 -35 68 0 68 0 0 -40 0 -40 85 0 85 0 0 -35 0 -35 63 1 c34 1 50 4 35 6 -24
4 -28 9 -28 39 0 31 -2 34 -30 34 -27 0 -30 3 -30 30 l0 30 -70 0 -70 0 0 35
0 35 -55 0 -55 0 0 38 0 37 -112 0 -113 0 0 38 0 37 -137 0 -138 0 0 35 0 35
-190 0 -190 0 0 -35z m1180 -2835 c0 -5 -12 -10 -27 -9 -25 0 -26 1 -8 9 27
12 35 12 35 0z m70 -104 c0 -20 -6 -24 -46 -30 -26 -3 -69 -6 -95 -6 -48 0
-49 1 -49 30 l0 30 95 0 c93 0 95 0 95 -24z"/>
<path d="M2325 3873 c0 -27 -2 -28 -62 -31 l-62 -3 -3 -37 -3 -37 -65 0 c-36
0 -93 -1 -127 -3 l-63 -2 0 -35 c0 -32 -2 -35 -30 -35 -26 0 -30 -3 -30 -29 0
-28 -2 -29 -60 -36 -54 -6 -60 -9 -60 -30 0 -14 7 -25 18 -28 9 -3 -4 -5 -30
-6 -47 -1 -47 -1 -50 -38 -3 -33 -7 -38 -30 -41 -24 -3 -28 -8 -28 -33 0 -27
-3 -29 -35 -29 -32 0 -35 -2 -35 -30 0 -27 -3 -30 -30 -30 -27 0 -30 -3 -30
-30 0 -28 -3 -30 -35 -30 l-35 0 0 -85 0 -85 -29 0 c-27 0 -29 -3 -35 -52 -3
-29 -6 -76 -6 -105 0 -49 -1 -52 -27 -55 -23 -2 -29 -8 -31 -35 -3 -29 -7 -33
-33 -33 l-30 0 2 -399 2 -400 31 -3 c28 -3 31 -6 30 -35 -2 -31 0 -33 32 -33
l34 0 0 -65 0 -65 30 0 c28 0 30 -2 30 -40 0 -37 2 -40 29 -40 28 0 29 -1 35
-69 l7 -70 65 -6 c65 -7 65 -7 59 -36 -6 -26 -4 -28 27 -31 29 -3 33 -7 36
-35 3 -29 7 -33 33 -33 24 0 29 -4 29 -25 0 -21 5 -25 30 -25 26 0 30 -3 30
-29 0 -28 2 -29 60 -36 58 -7 60 -8 60 -36 0 -29 0 -29 60 -29 47 0 60 -3 60
-15 0 -12 14 -15 70 -15 40 0 70 -4 70 -10 0 -6 27 -10 60 -10 l60 0 0 -35 0
-35 245 0 245 0 0 39 0 39 112 7 c74 5 116 12 123 21 5 7 26 14 45 16 31 3 35
6 38 36 3 29 6 32 38 32 31 0 34 2 34 30 0 27 3 30 30 30 25 0 30 4 30 25 0
21 5 25 31 25 29 0 30 2 24 30 -6 29 -6 30 32 30 68 0 83 8 83 46 0 31 3 34
30 34 25 0 30 4 30 25 0 21 5 25 30 25 17 0 29 3 29 8 -1 4 -1 26 0 50 1 40 3
42 31 42 28 0 30 3 30 35 0 28 4 35 20 35 16 0 20 7 20 35 0 28 4 35 20 35 18
0 20 7 20 65 0 63 1 65 25 65 l25 0 0 109 c0 106 1 110 23 113 l22 3 3 258 2
257 -25 0 c-24 0 -25 3 -25 60 0 57 -1 60 -25 60 l-25 0 0 110 0 110 -26 0
c-25 0 -26 2 -21 36 5 30 3 37 -13 41 -16 4 -20 14 -20 44 0 37 -2 39 -30 39
-28 0 -30 3 -30 35 0 32 -2 35 -30 35 -27 0 -30 3 -30 30 0 27 -3 30 -30 30
-28 0 -30 3 -30 35 0 32 -2 35 -30 35 -28 0 -30 3 -30 35 0 32 -2 35 -30 35
-26 0 -30 3 -30 29 0 27 -3 29 -54 35 -53 7 -55 9 -58 39 -3 28 -7 32 -35 35
-29 3 -33 7 -33 31 0 27 -2 28 -67 34 -38 4 -85 7 -105 7 -37 0 -38 1 -38 35
l0 34 -57 3 c-55 3 -58 4 -61 31 l-3 27 -238 0 -237 0 1 -27z m485 -153 l0
-40 110 0 c103 0 110 -1 110 -20 0 -17 7 -20 50 -20 l50 0 0 -40 0 -40 60 0
60 0 0 -40 0 -40 54 0 54 0 -6 -45 -5 -45 37 0 c32 0 36 -3 36 -25 0 -21 5
-25 30 -25 30 0 30 0 30 -56 0 -51 2 -55 23 -54 41 4 44 1 43 -50 l-2 -50 38
0 c33 0 37 -2 36 -27 -1 -65 1 -72 29 -75 25 -3 27 -7 26 -40 0 -21 -1 -240
-2 -488 l-1 -450 -25 0 c-24 0 -28 -6 -28 -42 0 -19 -7 -23 -23 -10 -5 4 -3 0
6 -8 8 -8 15 -21 14 -27 -1 -7 -2 -17 -3 -23 0 -5 -15 -8 -31 -6 -35 4 -47
-12 -45 -60 1 -19 -4 -31 -11 -31 -7 0 -10 5 -7 11 4 7 1 6 -8 -1 -8 -6 -18
-11 -24 -10 -5 1 -11 -8 -13 -21 -2 -12 -8 -20 -13 -16 -5 3 -7 9 -4 14 4 7
-24 6 -32 0 -2 -2 -7 -3 -12 -4 -26 -3 -18 -13 9 -11 24 2 30 -1 26 -12 -3 -8
-2 -11 3 -8 5 3 12 1 16 -5 6 -10 3 -11 -34 -14 -11 0 -23 -5 -28 -10 -5 -5
-3 -6 5 -2 7 4 12 2 12 -6 0 -9 3 -9 10 2 8 12 10 12 10 1 0 -10 3 -11 13 -2
10 8 14 7 14 -3 0 -8 -7 -13 -16 -11 -21 3 -53 -14 -46 -25 3 -5 1 -11 -4 -14
-5 -4 -12 -2 -16 3 -4 7 -14 6 -30 -1 -33 -15 -24 -26 20 -23 19 2 32 -1 30
-6 -3 -4 -12 -6 -20 -2 -8 3 -15 0 -15 -6 0 -6 5 -12 10 -12 6 -1 15 -3 20 -4
6 -1 13 -3 16 -4 3 0 2 -6 -1 -11 -5 -8 -11 -7 -21 1 -10 8 -18 9 -27 0 -11
-8 -18 -6 -33 11 -10 12 -13 18 -5 13 9 -5 12 -4 10 4 -3 7 -8 12 -12 12 -4
-1 -14 -1 -24 -1 -14 0 -14 -3 3 -22 10 -12 13 -18 7 -14 -8 4 -13 2 -13 -5 0
-8 -5 -6 -12 4 -14 18 -38 10 -41 -14 -2 -8 -6 -20 -10 -26 -5 -7 -6 -17 -2
-22 3 -5 1 -12 -4 -16 -6 -3 -8 -13 -5 -23 5 -14 4 -14 -4 -2 -6 8 -8 19 -4
25 3 5 7 19 7 30 0 11 4 27 9 35 5 8 6 12 1 8 -4 -4 -16 -3 -26 2 -12 7 -20 7
-24 0 -4 -6 -1 -9 6 -8 7 2 13 -6 14 -16 0 -13 -8 -20 -25 -23 -14 -1 -20 0
-15 4 6 5 11 15 10 23 0 12 -13 15 -57 15 -32 0 -62 5 -69 13 -7 6 -11 12 -9
13 3 0 13 2 22 4 10 2 20 -1 24 -6 3 -5 10 -7 15 -3 5 3 6 11 2 17 -4 7 -8 15
-9 20 -1 4 -2 8 -4 10 -7 9 -6 37 1 37 6 0 7 6 3 13 -5 8 -2 8 9 -2 18 -15 23
-26 7 -16 -16 10 -12 -11 5 -25 22 -18 34 -3 30 36 -3 32 -1 35 12 22 8 -8 25
-13 38 -10 20 3 23 9 20 38 -1 19 2 37 7 40 6 4 5 10 -3 15 -10 6 -7 8 8 6 12
0 20 -4 17 -8 -2 -4 4 -12 13 -18 14 -8 15 -10 3 -11 -13 0 -13 -2 0 -9 8 -6
19 -7 25 -4 5 3 5 0 -2 -7 -6 -7 -9 -20 -6 -29 4 -13 3 -14 -5 -1 -6 8 -8 18
-5 23 3 5 0 8 -6 6 -7 -3 -12 -8 -11 -13 1 -5 -4 -13 -12 -18 -9 -6 -8 -8 7
-6 18 3 20 -2 18 -50 -2 -31 1 -51 7 -47 5 3 7 13 4 23 -5 13 -4 14 4 4 7 -11
10 -11 15 3 4 9 3 14 -1 11 -5 -3 -8 5 -7 17 2 30 20 23 19 -8 -2 -31 7 -32
24 -4 9 13 9 18 2 14 -7 -4 -10 0 -8 11 2 11 -3 19 -12 19 -11 0 -14 10 -13
33 1 18 -3 32 -9 32 -6 0 -8 3 -4 8 4 4 12 7 17 7 5 0 9 5 9 10 0 6 -5 10 -12
10 -6 0 -12 9 -14 19 -1 10 -9 26 -18 34 -13 13 -18 13 -31 2 -9 -7 -14 -18
-11 -25 2 -6 -1 -12 -7 -12 -7 0 -12 12 -12 27 -1 23 3 26 30 24 16 -1 30 -2
30 -3 0 -2 8 -4 18 -6 14 -3 16 -1 7 10 -7 8 -15 14 -18 13 -25 -3 -40 4 -38
19 0 10 -5 18 -13 18 -8 0 -15 8 -17 17 -1 10 3 16 9 15 7 -1 11 4 9 11 -1 6
2 12 8 12 5 0 11 -4 11 -10 1 -5 2 -14 3 -19 2 -18 16 -24 16 -8 0 9 8 17 18
17 14 0 15 2 2 9 -8 6 -18 7 -22 5 -4 -3 -5 2 -2 11 4 10 1 14 -7 12 -8 -2
-11 -2 -6 0 14 9 7 21 -10 18 -10 -1 -17 -8 -15 -14 1 -6 -2 -11 -7 -11 -6 0
-9 9 -8 19 1 13 7 18 20 15 13 -2 17 1 13 11 -3 8 -2 14 2 14 19 -3 33 2 28
10 -3 5 -19 7 -36 6 -16 -1 -30 1 -30 6 0 5 11 7 23 5 13 -2 30 0 38 5 11 7
10 9 -6 10 -11 1 -22 1 -25 1 -3 0 -6 8 -6 18 0 20 23 20 36 -1 7 -11 9 -9 10
6 1 44 5 74 12 81 4 4 3 13 -3 21 -8 9 -8 17 0 26 8 11 4 13 -22 12 -51 -3
-57 3 -57 56 l0 49 -40 0 -40 0 0 55 0 55 -47 1 c-27 1 -51 1 -55 0 -4 0 -5 6
-2 14 4 9 1 15 -7 15 -8 0 -6 5 6 13 12 10 15 16 6 21 -8 5 -8 13 -1 26 7 13
7 21 -2 26 -6 4 -8 3 -5 -3 3 -5 0 -10 -7 -10 -7 0 -13 6 -13 13 0 7 4 11 9 8
4 -3 8 0 8 6 0 6 4 9 9 5 5 -3 12 -1 15 4 4 5 1 13 -5 17 -8 5 -9 3 -4 -6 5
-9 4 -11 -4 -6 -9 6 -9 11 1 24 7 9 8 13 2 9 -6 -3 -11 0 -11 7 0 8 6 12 12
10 6 -3 12 1 13 8 8 62 7 74 -2 80 -6 4 4 6 22 4 31 -3 44 8 20 17 -7 3 -3 4
9 4 18 -1 20 -4 12 -19 -6 -10 -17 -17 -26 -16 -12 2 -17 -6 -19 -30 -3 -34 5
-39 10 -6 2 10 8 20 14 22 7 2 9 -7 6 -25 -3 -15 -2 -25 1 -21 4 3 8 14 10 25
2 10 4 19 5 21 2 1 3 5 5 10 10 35 18 41 56 37 26 -3 39 0 40 8 1 7 2 78 4
160 l2 147 -26 1 c-14 1 -37 0 -50 -1 -23 -2 -24 -1 -19 84 l4 86 -197 0 -197
0 -4 -52 c-6 -94 0 -118 28 -118 21 0 24 4 24 40 l0 40 136 0 c120 0 135 -2
130 -16 -3 -9 -6 -74 -6 -145 l0 -129 -69 0 -69 0 -7 -60 c-7 -60 -7 -60 -40
-60 -32 0 -34 -2 -37 -37 -3 -36 -5 -38 -35 -38 l-33 0 0 -57 0 -58 35 0 c35
0 35 0 35 -44 l0 -44 77 -7 c55 -6 82 -4 97 5 17 10 19 10 9 -1 -7 -7 -13 -37
-13 -66 0 -50 1 -53 25 -53 l25 0 0 -215 0 -215 -24 0 c-18 0 -25 -6 -28 -22
-3 -23 -5 -23 -180 -26 l-178 -2 0 -35 c0 -33 1 -34 38 -31 22 2 43 -3 51 -11
10 -11 8 -13 -14 -9 -22 4 -25 3 -15 -9 6 -8 9 -19 5 -25 -3 -5 -1 -10 4 -10
6 0 11 7 11 15 0 8 3 15 8 15 4 0 7 -15 6 -32 -2 -52 4 -58 58 -58 27 0 47 4
44 8 -2 4 6 8 19 8 13 0 22 -3 19 -7 -2 -4 5 -9 16 -12 13 -3 18 -10 14 -21
-3 -9 -11 -13 -16 -10 -6 4 -9 1 -6 -7 3 -10 23 -14 71 -14 52 0 63 -2 55 -12
-7 -9 -7 -13 0 -13 13 0 36 39 25 41 -4 1 -30 2 -57 3 -38 1 -50 5 -52 18 -1
12 4 15 18 13 13 -3 18 0 15 8 -3 8 6 13 25 14 20 0 26 -2 17 -7 -7 -5 -17 -6
-21 -4 -4 3 -8 0 -8 -5 0 -12 2 -13 45 -16 39 -2 57 5 52 20 -3 6 0 12 6 12 7
0 12 -16 12 -37 1 -23 -4 -37 -12 -37 -7 0 -9 5 -6 10 3 5 0 7 -8 5 -8 -3 -14
-12 -14 -20 0 -8 -6 -23 -14 -32 -10 -12 -11 -19 -2 -29 9 -11 6 -14 -14 -13
-13 1 -28 6 -32 10 -4 5 -3 6 4 2 15 -8 25 8 17 28 -5 12 -10 13 -25 5 -18 -9
-24 -5 -19 16 1 5 -2 7 -6 3 -4 -4 -13 -3 -21 3 -10 9 -13 8 -13 -2 0 -11 -2
-11 -10 1 -7 11 -10 11 -10 2 0 -8 -5 -10 -12 -6 -8 4 -10 3 -5 -2 5 -5 10 -7
11 -4 2 3 11 -2 21 -10 11 -9 16 -10 11 -2 -14 23 12 12 28 -12 10 -16 12 -27
5 -31 -7 -5 -7 -11 1 -20 8 -9 6 -14 -5 -19 -12 -4 -14 -10 -6 -23 11 -21 -5
-57 -21 -47 -6 4 -9 1 -6 -6 6 -20 39 -22 36 -2 -2 11 5 17 20 18 40 3 43 4
37 14 -4 6 -10 8 -15 5 -11 -7 -7 22 5 32 4 4 5 3 2 -3 -4 -7 0 -17 8 -24 13
-11 15 -10 12 6 -4 27 -17 45 -27 39 -5 -3 -11 -2 -14 3 -4 7 95 9 102 2 1 -1
10 -3 20 -4 9 -1 23 -5 30 -10 7 -4 19 -3 27 4 8 7 15 10 15 6 0 -3 0 -8 0
-11 0 -3 -2 -5 -6 -4 -3 0 -15 -6 -27 -13 -26 -16 -73 -17 -70 -1 3 15 -24 36
-37 28 -6 -3 -8 -11 -4 -16 3 -5 11 -6 17 -2 7 4 5 -1 -3 -11 -13 -16 -12 -20
5 -32 13 -10 22 -11 31 -3 8 7 14 7 19 -1 3 -6 10 -8 15 -5 5 3 12 0 16 -7 4
-7 4 -10 -1 -6 -4 4 -14 3 -22 -4 -11 -9 -11 -13 1 -27 14 -15 13 -17 -9 -17
-13 0 -23 2 -22 6 1 3 -2 5 -8 5 -5 0 -9 -3 -8 -6 1 -3 -4 -6 -12 -6 -8 0 -13
5 -12 11 1 6 -12 11 -30 10 -18 0 -30 3 -27 7 2 4 1 10 -4 13 -4 2 -13 -4 -20
-14 -12 -20 -6 -29 18 -25 9 2 16 -5 16 -15 0 -21 -25 -20 -37 3 -6 10 -18 14
-37 11 -31 -6 -64 -32 -56 -45 3 -5 0 -9 -6 -9 -6 0 -10 7 -8 16 2 10 -2 19
-9 21 -7 3 -11 -3 -8 -15 2 -14 -2 -19 -17 -18 -14 1 -22 9 -25 25 -3 20 -1
22 11 12 11 -9 16 -9 22 0 5 8 3 9 -6 4 -10 -6 -12 -4 -7 8 3 9 1 19 -5 23 -7
4 -8 3 -4 -4 4 -7 3 -12 -3 -12 -15 0 -21 14 -11 30 7 11 12 11 23 2 7 -7 17
-9 20 -5 15 15 4 20 -43 19 -28 0 -50 -4 -50 -10 0 -6 -5 -4 -10 4 -7 11 -10
11 -10 2 0 -8 -5 -10 -12 -5 -22 13 -48 13 -48 0 0 -8 -4 -7 -10 3 -6 9 -10
10 -10 3 0 -6 5 -15 10 -18 6 -4 8 -11 5 -16 -4 -5 -3 -9 2 -10 4 0 16 -2 26
-4 11 -2 16 2 14 8 -2 7 -9 12 -14 12 -6 0 -15 4 -20 9 -5 5 -2 6 6 1 10 -6
12 -4 6 6 -7 11 -6 12 7 2 8 -7 19 -9 23 -5 5 4 5 1 0 -7 -5 -9 -4 -12 3 -7 8
5 10 1 6 -11 -4 -13 -3 -15 4 -5 7 11 10 11 15 -3 4 -9 3 -13 -2 -10 -5 3 -12
1 -15 -4 -4 -5 1 -8 11 -7 17 3 28 36 12 36 -6 0 -8 4 -4 10 3 5 12 7 20 4 8
-4 13 -10 10 -14 -3 -5 -1 -11 5 -15 5 -3 10 -11 10 -16 0 -6 -5 -7 -12 -3 -7
4 -8 3 -4 -5 4 -6 12 -8 18 -5 7 4 8 2 4 -5 -4 -6 -3 -18 4 -26 11 -14 5 -22
-17 -21 -7 1 -13 5 -12 10 0 5 -5 13 -13 18 -9 7 -8 8 5 4 12 -4 17 -2 15 6
-7 20 -49 19 -46 -1 2 -9 -3 -15 -11 -13 -9 2 -11 -3 -7 -15 4 -9 4 -14 0 -10
-4 4 -17 -2 -30 -14 l-22 -20 4 28 c2 15 5 40 7 55 3 19 0 25 -10 21 -9 -4
-10 -9 -4 -17 11 -13 -7 -50 -27 -54 -8 -1 -11 2 -8 7 4 5 2 12 -3 15 -11 7
-23 -22 -15 -35 3 -5 11 -6 17 -3 8 5 8 3 0 -7 -21 -21 -16 -25 34 -24 29 1
48 6 51 14 3 9 0 11 -9 6 -8 -5 -11 -4 -6 1 5 5 32 9 62 9 51 1 53 0 48 -24
-2 -14 -7 -28 -10 -31 -3 -3 -3 4 -2 15 2 11 -1 20 -6 20 -6 0 -10 -7 -9 -16
1 -10 -5 -16 -15 -14 -9 1 -15 7 -14 13 1 5 -4 16 -13 23 -13 10 -14 9 -10
-13 5 -27 -4 -29 -77 -13 -17 3 -26 2 -23 -4 3 -5 -2 -8 -11 -6 -10 2 -21 4
-25 4 -5 1 -8 8 -8 17 0 8 -5 12 -10 9 -6 -4 -7 -12 -4 -18 4 -7 4 -9 -1 -5
-4 4 -14 3 -21 -3 -10 -8 -12 -5 -8 15 2 15 0 26 -6 26 -7 0 -6 5 2 13 10 12
15 12 26 0 17 -17 19 -17 32 6 8 17 7 19 -15 16 -17 -1 -31 5 -40 19 -8 11
-15 15 -15 8 0 -6 -5 -12 -10 -12 -9 0 -9 15 2 60 1 8 -3 14 -10 12 -8 -1 -12
3 -10 10 3 7 10 13 15 13 6 0 14 3 17 6 4 3 -6 5 -21 4 -21 -1 -27 -6 -25 -19
2 -12 -1 -16 -10 -11 -10 6 -11 5 0 -6 17 -18 15 -34 -3 -19 -12 10 -14 8 -10
-9 5 -29 15 -42 25 -36 12 8 21 -10 22 -45 1 -16 4 -27 9 -25 4 3 6 -3 5 -12
-2 -12 -13 -18 -35 -18 -27 -1 -30 1 -16 11 14 11 14 13 -1 29 -16 16 -16 16
2 13 12 -2 19 3 19 12 0 8 -4 15 -10 16 -23 2 -44 17 -38 27 4 6 1 7 -7 2 -10
-6 -12 -4 -7 8 4 10 2 16 -5 14 -6 -1 -12 3 -15 10 -3 7 3 11 15 8 10 -2 19 2
19 9 0 7 -9 13 -20 12 -11 -1 -22 5 -25 13 -3 8 0 11 6 7 6 -3 13 -2 16 2 7
12 -41 9 -51 -2 -4 -5 -2 -6 5 -2 14 9 17 -10 2 -19 -6 -4 -8 -11 -4 -16 3 -5
9 -7 14 -4 5 3 8 -3 7 -14 -1 -14 -5 -17 -13 -10 -8 6 -13 5 -17 -4 -4 -10 2
-14 19 -14 13 0 24 4 24 10 0 5 8 -1 18 -14 24 -31 24 -55 -1 -56 -18 -2 -18
-1 -3 10 14 10 15 15 4 29 -9 13 -17 15 -28 8 -13 -8 -12 -10 3 -10 10 0 15
-5 12 -10 -4 -6 -11 -7 -17 -4 -7 5 -9 2 -6 -8 4 -8 1 -15 -6 -15 -8 0 -12 10
-10 24 2 22 -15 30 -49 24 -5 -1 -6 3 -2 9 3 6 11 7 17 4 7 -4 8 -2 4 5 -4 6
-12 9 -17 6 -5 -4 -9 -2 -9 4 0 6 -7 8 -15 5 -8 -4 -15 -10 -15 -16 0 -5 5 -6
10 -3 6 3 10 2 10 -2 0 -5 -53 -9 -117 -9 -65 -1 -112 1 -105 3 23 8 12 21
-16 18 -18 -1 -29 3 -29 11 0 7 4 11 8 9 11 -8 28 19 25 40 -2 14 -9 19 -25
17 -18 -3 -21 1 -17 23 3 14 1 23 -5 20 -5 -4 -9 -1 -9 6 0 10 -3 10 -12 1 -9
-9 -9 -15 1 -24 11 -11 12 -10 6 2 -5 8 -6 13 -2 10 14 -12 10 -23 -9 -26 -17
-3 -20 2 -20 33 1 27 -3 37 -17 39 -9 1 -15 -2 -11 -7 3 -5 1 -9 -5 -9 -5 0
-12 4 -15 9 -8 12 -37 8 -34 -5 2 -5 6 -8 10 -7 4 2 5 -4 1 -13 -3 -9 -9 -12
-12 -7 -9 12 -44 16 -36 4 3 -6 1 -11 -4 -11 -6 0 -11 5 -11 11 0 5 -4 8 -9 5
-5 -3 -15 2 -22 11 -10 12 -10 14 -1 9 16 -9 16 6 0 22 -7 7 -13 20 -13 30 0
11 -7 17 -22 16 -13 -1 -20 2 -18 6 3 4 -2 11 -10 14 -9 3 -18 -1 -21 -9 -4
-8 -10 -15 -16 -15 -5 0 -7 4 -3 9 3 5 1 12 -4 15 -5 4 -11 -2 -13 -11 -3 -15
-5 -14 -10 5 -3 12 -2 20 3 16 5 -3 9 -1 9 5 0 5 -5 13 -11 16 -6 4 -8 13 -6
19 8 22 -9 38 -41 39 -17 1 -30 4 -30 7 0 3 0 28 -1 56 -1 42 -4 51 -18 51
-37 0 -43 4 -43 24 0 11 4 17 10 14 5 -3 20 -8 32 -10 17 -4 19 -2 9 8 -6 6
-19 12 -29 12 -10 0 -17 8 -17 18 0 23 -26 39 -42 26 -7 -6 -17 -8 -22 -5 -9
6 -15 249 -13 541 1 50 1 195 1 323 l1 233 22 -1 c46 -4 48 -1 48 50 0 48 1
50 28 50 26 0 29 3 29 38 1 62 1 62 38 62 l35 0 0 55 c0 48 3 55 20 56 41 3
45 4 46 17 1 6 2 17 3 22 0 6 12 10 26 10 23 0 25 4 25 45 l0 45 60 0 60 0 0
40 0 40 60 0 60 0 0 40 0 40 55 0 c48 0 55 2 55 20 0 19 7 20 105 20 115 0
108 -4 108 63 0 16 18 17 243 17 l244 0 0 -40z m167 -1176 c-3 -3 -12 -4 -19
-1 -8 3 -5 6 6 6 11 1 17 -2 13 -5z m281 -262 c14 11 14 9 0 -8 -21 -25 -24
-41 -4 -25 9 8 16 8 20 2 4 -5 2 -13 -4 -16 -6 -4 -8 -15 -5 -25 3 -10 1 -21
-4 -25 -6 -3 -8 0 -5 8 4 11 -2 14 -25 12 -17 -1 -31 1 -31 6 0 5 12 7 26 5
17 -3 24 -1 21 7 -3 7 -9 11 -14 10 -8 -2 -9 14 -3 52 1 6 4 4 7 -3 4 -10 8
-10 21 0z m-1951 -64 c-2 -13 -4 -5 -4 17 -1 22 1 32 4 23 2 -10 2 -28 0 -40z
m1968 -348 c3 -5 1 -10 -4 -10 -6 0 -11 5 -11 10 0 6 2 10 4 10 3 0 8 -4 11
-10z m9 -28 c3 -5 -1 -9 -9 -9 -8 0 -12 4 -9 9 3 4 7 8 9 8 2 0 6 -4 9 -8z
m-87 -48 c-8 -9 -47 -13 -51 -6 -2 4 9 8 25 8 17 1 28 0 26 -2z m-440 -39 c0
-6 -6 -12 -12 -12 -6 0 -12 6 -12 12 0 6 6 12 12 12 6 0 12 -6 12 -12z m361
-160 c3 -12 -47 -15 -54 -3 -3 4 -10 5 -16 2 -6 -4 -8 -3 -5 3 8 12 71 11 75
-2z m77 -45 c-8 -9 -12 -20 -8 -25 5 -4 2 -5 -5 -1 -9 6 -10 11 -3 20 6 7 9
15 6 18 -3 2 2 5 10 5 13 0 13 -2 0 -17z m-1271 -1 c11 10 13 5 11 -24 -1 -19
-6 -39 -10 -43 -5 -4 -5 1 -2 10 6 18 -17 43 -32 34 -5 -4 -9 2 -8 13 1 15 4
17 14 9 9 -7 17 -7 27 1z m101 -79 c-3 -5 -12 -10 -18 -10 -7 0 -6 4 3 10 19
12 23 12 15 0z m339 -18 c3 -5 -1 -9 -9 -9 -8 0 -12 4 -9 9 3 4 7 8 9 8 2 0 6
-4 9 -8z m106 -22 c-5 -10 -7 -20 -4 -23 3 -3 -1 -4 -10 -3 -8 1 -19 6 -23 10
-4 4 -1 6 7 4 9 -2 15 4 14 13 -1 9 5 16 12 16 9 0 10 -5 4 -17z m460 -18 c0
-5 -7 -9 -15 -9 -8 0 -12 4 -9 9 3 4 9 8 15 8 5 0 9 -4 9 -8z m114 -2 c2 -3
-9 -6 -25 -6 -16 -1 -29 2 -29 6 0 7 46 7 54 0z m62 1 c9 7 12 6 10 -7 -2 -10
-10 -18 -19 -20 -9 -1 -15 3 -14 9 1 7 -4 11 -11 9 -8 -1 -11 2 -7 9 5 7 10 8
18 0 7 -7 14 -7 23 0z m-113 -28 c-7 -2 -19 -2 -25 0 -7 3 -2 5 12 5 14 0 19
-2 13 -5z m-489 -24 c-3 -5 -10 -7 -15 -3 -5 3 -7 10 -3 15 3 5 10 7 15 3 5
-3 7 -10 3 -15z m-96 -52 c6 -19 1 -31 -7 -18 -14 22 -44 24 -37 3 5 -15 5
-15 -7 0 -8 10 -18 14 -22 10 -5 -4 -5 -2 -2 4 7 12 71 13 75 1z"/>
<path d="M2008 3266 c-2 -19 -2 -39 0 -45 2 -7 56 -11 165 -11 l162 0 -3 45
-4 45 -158 0 -158 0 -4 -34z"/>
<path d="M1920 3013 l0 -198 105 0 105 -1 0 53 0 53 -65 0 -65 0 0 145 0 145
-40 0 -40 0 0 -197z"/>
<path d="M2331 3098 l-1 -78 35 0 35 0 0 -55 0 -55 45 0 c43 0 45 -1 45 -30 0
-28 3 -30 35 -30 33 0 35 2 35 35 0 28 -4 35 -20 35 -18 0 -20 7 -20 55 l0 55
-35 0 -35 0 0 50 0 50 -54 0 c-49 0 -55 2 -59 23 -2 12 -5 -13 -6 -55z"/>
<path d="M2620 3075 l0 -55 40 0 40 0 0 55 0 55 -40 0 -40 0 0 -55z"/>
<path d="M2280 3030 c0 -5 5 -10 11 -10 5 0 7 5 4 10 -3 6 -8 10 -11 10 -2 0
-4 -4 -4 -10z"/>
<path d="M2120 2760 l0 -40 40 0 40 0 0 -55 0 -55 -41 0 c-41 0 -41 0 -39 -37
3 -64 4 -63 -55 -63 l-55 0 0 -50 0 -50 60 0 60 0 0 50 0 50 35 0 35 0 0 50 0
50 35 0 35 0 0 60 0 60 -35 0 c-33 0 -35 2 -35 35 0 34 -1 35 -40 35 l-40 0 0
-40z"/>
<path d="M1708 2658 l-3 -53 -37 -3 -38 -3 0 -48 c0 -47 0 -48 33 -47 l32 1 3
-57 3 -58 44 0 44 0 3 57 3 57 48 -3 47 -3 0 51 0 51 -51 0 -50 0 6 55 7 55
-45 0 -46 0 -3 -52z m82 -78 c0 -17 -7 -20 -40 -20 -33 0 -40 3 -40 20 0 17 7
20 40 20 33 0 40 -3 40 -20z"/>
<path d="M3338 2658 l-3 -53 -47 -3 -48 -3 0 -50 0 -49 50 0 50 0 0 -55 0 -55
45 0 45 0 0 55 0 55 35 0 35 0 0 50 0 50 -35 0 -35 0 0 55 0 55 -44 0 -45 0
-3 -52z m82 -78 c0 -17 -7 -20 -40 -20 -33 0 -40 3 -40 20 0 17 7 20 40 20 33
0 40 -3 40 -20z"/>
<path d="M2488 2473 c-3 -25 -7 -28 -45 -31 l-43 -3 0 -55 0 -54 -35 0 -35 0
0 -54 0 -54 -36 -4 c-24 -3 -38 0 -41 9 -3 7 -16 13 -29 13 -23 0 -24 -2 -24
-85 l0 -85 35 0 35 0 0 -75 0 -75 -77 2 c-43 1 -122 1 -175 0 l-98 -2 0 -30
c0 -20 5 -30 15 -30 13 0 20 -19 16 -44 -1 -5 4 -4 12 2 8 7 18 8 22 4 5 -4 5
-1 1 6 -4 7 -12 10 -17 7 -5 -4 -9 -2 -9 4 0 5 9 9 19 8 14 -1 18 -7 15 -24
-3 -13 1 -23 7 -23 7 0 9 -3 6 -7 -4 -3 -2 -12 4 -20 8 -9 8 -13 1 -13 -11 0
-27 19 -27 32 0 20 -11 13 -11 -7 0 -13 2 -22 5 -20 2 3 10 0 18 -6 15 -13
145 -20 138 -8 -3 4 -1 11 5 14 6 4 9 1 8 -7 -2 -10 18 -13 87 -13 50 0 95 -4
101 -7 6 -4 14 -5 18 -1 3 4 28 7 54 7 49 1 58 11 40 49 -5 9 -5 17 -1 17 5 0
8 15 6 33 -4 78 -4 103 0 122 2 11 0 26 -6 33 -6 8 -6 12 2 12 6 0 11 5 11 11
0 5 -5 7 -11 3 -8 -5 -8 -1 0 14 8 16 8 24 -4 35 -12 13 -12 16 -1 20 18 7 15
35 -5 49 -11 8 -11 9 3 4 10 -3 17 -2 17 2 -1 4 -1 18 0 31 1 19 4 21 15 12
10 -8 16 -9 21 -1 3 6 11 8 16 4 5 -3 9 -2 8 3 -1 4 -1 27 0 51 1 37 4 42 24
42 13 0 29 -6 36 -12 11 -10 13 -10 7 0 -5 8 0 12 13 12 18 0 21 -6 21 -45 0
-48 2 -50 63 -46 15 0 27 0 28 -1 0 -2 2 -29 5 -60 l5 -57 -48 -3 -48 -3 -3
-57 -3 -58 41 0 40 0 0 55 0 55 60 0 60 0 0 79 c0 44 -4 83 -10 86 -5 3 -10 1
-10 -4 0 -6 -20 -11 -44 -11 l-45 0 -3 53 -3 52 -36 3 c-36 3 -37 4 -44 57 -6
52 -8 54 -38 57 -27 2 -33 8 -35 31 -3 22 -8 27 -32 27 -24 0 -29 -5 -32 -27z
m-41 -708 c0 -8 -4 -12 -9 -9 -5 3 -6 10 -3 15 9 13 12 11 12 -6z m-103 -11
c3 -8 2 -12 -4 -9 -6 3 -10 10 -10 16 0 14 7 11 14 -7z"/>
<path d="M1920 2175 l0 -215 40 0 40 0 0 215 0 215 -40 0 -40 0 0 -215z"/>
<path d="M3643 2165 c0 -8 4 -12 9 -9 5 3 6 10 3 15 -9 13 -12 11 -12 -6z"/>
<path d="M3251 2075 c0 -5 6 -21 13 -33 13 -24 13 -24 13 7 0 18 -4 27 -7 20
-6 -8 -9 -7 -13 2 -3 8 -6 10 -6 4z"/>
<path d="M3485 2040 c-3 -5 -5 -10 -3 -11 33 -8 38 -7 27 7 -14 17 -16 17 -24
4z"/>
<path d="M3219 1983 c-8 -10 -9 -14 -2 -10 7 4 18 -2 27 -15 11 -15 16 -18 16
-8 0 12 2 13 9 1 6 -9 9 -5 9 14 0 23 -2 25 -10 11 -8 -13 -13 -15 -24 -5 -7
6 -11 15 -8 20 9 16 -3 10 -17 -8z"/>
<path d="M3495 1981 c-3 -5 -2 -12 3 -15 5 -3 9 1 9 9 0 17 -3 19 -12 6z"/>
<path d="M3560 1954 c12 -13 41 -13 40 1 0 5 -11 10 -25 11 -19 1 -22 -2 -15
-12z"/>
<path d="M3484 1906 c-1 -17 1 -26 3 -19 2 7 10 10 17 7 17 -7 29 23 13 33
-24 15 -32 10 -33 -21z m30 3 c-3 -5 -10 -7 -15 -3 -5 3 -7 10 -3 15 3 5 10 7
15 3 5 -3 7 -10 3 -15z"/>
<path d="M3229 1829 c-1 -2 -2 -16 -3 -31 -2 -21 0 -25 10 -18 12 11 13 34 1
46 -4 4 -7 5 -8 3z"/>
<path d="M3335 1810 c-3 -6 -11 -7 -17 -4 -7 4 -8 2 -4 -5 4 -6 12 -9 17 -6 5
4 9 0 9 -7 0 -9 3 -9 10 2 6 10 10 11 10 3 0 -20 -4 -28 -13 -25 -5 1 -6 -2
-3 -7 9 -15 39 -6 42 12 1 10 -2 14 -9 10 -7 -4 -8 0 -3 13 4 10 4 15 0 11 -4
-4 -13 -2 -20 4 -8 7 -14 7 -19 -1z"/>
<path d="M1586 1792 c-3 -5 1 -9 9 -9 8 0 12 4 9 9 -3 4 -7 8 -9 8 -2 0 -6 -4
-9 -8z"/>
<path d="M1586 1748 c3 -5 10 -6 15 -3 13 9 11 12 -6 12 -8 0 -12 -4 -9 -9z"/>
<path d="M3155 1730 c2 -13 0 -29 -5 -35 -7 -8 -5 -12 5 -12 8 0 12 4 9 8 -2
4 0 10 5 13 5 4 8 -1 7 -11 -4 -24 -32 -24 -63 0 -19 15 -24 16 -14 4 7 -9 10
-17 6 -17 -4 0 -3 -6 4 -13 7 -9 7 -17 1 -23 -7 -7 3 -10 30 -9 22 1 43 5 47
9 13 12 12 76 -1 76 -6 0 -4 5 4 11 13 9 13 10 -1 6 -9 -3 -22 0 -28 6 -8 8
-9 4 -6 -13z m0 -79 c-9 -8 -36 -10 -30 -2 2 4 11 8 20 8 8 0 13 -3 10 -6z"/>
<path d="M3353 1733 c10 -3 14 -10 11 -16 -4 -7 -4 -9 1 -5 4 4 13 4 19 -2 8
-6 12 -2 13 13 2 17 0 19 -7 7 -7 -10 -10 -11 -10 -2 0 6 -10 11 -22 11 -18
-1 -19 -2 -5 -6z"/>
<path d="M1730 1725 c0 -2 6 -8 13 -14 10 -8 14 -7 14 2 0 8 -6 14 -14 14 -7
0 -13 -1 -13 -2z"/>
<path d="M1662 1705 c-7 -14 -6 -25 5 -41 12 -19 18 -21 33 -12 10 7 17 20 14
31 -4 24 -14 35 -14 17 0 -9 -5 -8 -14 5 -13 18 -13 18 -24 0z m39 -19 c6 3 5
-3 -2 -14 -12 -19 -14 -19 -25 -4 -6 9 -9 22 -6 30 4 12 7 11 14 -2 5 -9 14
-14 19 -10z"/>
<path d="M1771 1702 c-7 -13 -6 -19 2 -19 7 0 13 9 13 19 0 10 -1 18 -3 18 -1
0 -7 -8 -12 -18z"/>
<path d="M2743 1705 c0 -8 4 -12 9 -9 5 3 6 10 3 15 -9 13 -12 11 -12 -6z"/>
<path d="M2815 1709 c-3 -4 2 -6 10 -5 21 3 28 13 10 13 -9 0 -18 -4 -20 -8z"/>
<path d="M2916 1712 c-2 -4 9 -8 25 -8 33 -2 33 4 1 11 -12 2 -24 1 -26 -3z"/>
<path d="M3040 1711 c-8 -6 -19 -7 -25 -4 -5 4 -7 2 -2 -2 12 -14 44 -13 44 2
0 7 -1 13 -1 13 -1 0 -8 -4 -16 -9z"/>
<path d="M2656 1678 c3 -5 10 -6 15 -3 13 9 11 12 -6 12 -8 0 -12 -4 -9 -9z"/>
<path d="M1806 1661 c-3 -5 -19 -7 -34 -6 -18 1 -29 -3 -29 -10 0 -10 24 -13
35 -5 1 2 6 3 12 4 11 1 37 26 28 26 -4 0 -9 -4 -12 -9z"/>
<path d="M2943 1653 c0 -8 6 -9 19 -2 10 5 18 11 18 12 0 2 -8 3 -18 3 -10 0
-19 -6 -19 -13z"/>
<path d="M3347 1656 c-3 -8 -2 -18 3 -21 13 -8 20 9 11 24 -6 10 -10 9 -14 -3z"/>
<path d="M2999 1643 c-13 -16 -12 -17 4 -4 16 13 21 21 13 21 -2 0 -10 -8 -17
-17z"/>
<path d="M3054 1642 c4 -3 14 -7 22 -8 9 -1 13 0 10 4 -4 3 -14 7 -22 8 -9 1
-13 0 -10 -4z"/>
<path d="M2093 1626 c1 -6 -8 -11 -19 -10 -20 1 -24 -10 -14 -36 1 -3 1 -9 0
-15 -1 -5 2 -6 7 -2 4 5 8 14 8 20 1 7 7 11 15 9 8 -2 12 0 7 4 -4 4 0 15 8
24 13 14 13 17 1 17 -8 0 -14 -5 -13 -11z"/>
<path d="M1825 1620 c-5 -8 62 -7 69 1 3 2 -11 5 -30 5 -20 0 -37 -3 -39 -6z"/>
<path d="M1973 1617 c-3 -5 0 -14 6 -20 9 -9 10 -7 5 7 -5 13 -4 17 4 12 6 -3
13 -3 16 2 3 5 -2 9 -10 9 -8 0 -17 -4 -21 -10z"/>
<path d="M1780 1612 c0 -7 -1 -15 -2 -19 -2 -3 5 -7 15 -9 15 -2 16 0 5 14 -7
9 -14 19 -15 21 -2 2 -3 -1 -3 -7z"/>
<path d="M3185 1611 c-3 -5 -2 -12 3 -15 5 -3 9 1 9 9 0 17 -3 19 -12 6z"/>
<path d="M2005 1601 c-3 -5 -2 -12 3 -15 5 -3 9 1 9 9 0 17 -3 19 -12 6z"/>
<path d="M1826 1592 c-3 -5 1 -9 9 -9 8 0 12 4 9 9 -3 4 -7 8 -9 8 -2 0 -6 -4
-9 -8z"/>
<path d="M1798 1558 c-8 -20 17 -18 35 2 10 12 9 12 -5 2 -13 -10 -17 -10 -20
0 -3 8 -6 7 -10 -4z"/>
<path d="M3057 1558 c7 -8 11 -17 8 -20 -3 -3 5 -4 17 -4 27 2 36 21 11 21
-10 0 -25 4 -33 10 -12 7 -13 6 -3 -7z"/>
<path d="M2996 1495 c-10 -8 -24 -11 -30 -8 -6 4 -5 0 2 -9 7 -9 21 -15 30
-13 9 1 22 -2 29 -7 7 -6 14 -5 18 2 5 8 14 6 28 -7 17 -14 19 -14 9 -1 -9 11
-10 18 -2 23 6 3 8 11 4 16 -3 5 -11 6 -17 2 -16 -10 -67 -11 -61 -1 3 5 10 5
16 2 7 -4 8 -2 4 4 -9 14 -7 15 -30 -3z"/>
<path d="M2049 1480 c-1 -8 -1 -19 0 -24 1 -5 -6 -17 -15 -27 -16 -17 -15 -18
5 -14 11 2 24 -3 29 -10 6 -12 10 -11 20 5 7 12 8 21 2 25 -6 3 -10 11 -10 18
0 8 3 8 11 0 6 -6 18 -9 26 -6 13 5 13 2 4 -15 -7 -12 -16 -22 -21 -22 -6 0
-10 -5 -10 -10 0 -14 73 -9 82 4 5 7 8 5 8 -4 0 -10 5 -7 16 8 14 21 35 30 33
15 -1 -5 -1 -15 0 -23 1 -11 5 -10 13 5 7 11 13 26 14 32 3 17 -13 26 -21 13
-12 -19 -26 -11 -16 9 12 22 3 35 -15 20 -10 -9 -11 -16 -2 -33 6 -11 7 -18 3
-13 -5 4 -17 -1 -27 -10 -20 -18 -58 -28 -58 -15 0 5 7 17 15 28 8 10 14 14
13 8 -3 -11 1 -14 17 -14 3 0 1 9 -5 19 -7 14 -7 22 2 27 7 4 8 3 4 -4 -10
-16 -1 -15 12 1 9 10 3 13 -23 13 -23 0 -31 -4 -25 -10 6 -6 10 -13 10 -17 0
-12 -44 3 -57 19 -11 13 -13 13 -13 1 0 -12 -2 -12 -10 1 -9 13 -10 13 -11 0z
m25 -22 c-3 -5 -1 -15 6 -23 7 -8 7 -15 1 -19 -5 -4 -12 -2 -16 4 -4 6 -12 7
-18 3 -7 -4 -7 0 1 10 8 9 11 20 8 25 -3 5 1 9 9 9 8 0 12 -4 9 -9z m172 -23
c-1 -8 -5 -17 -8 -21 -5 -4 -4 16 1 34 3 9 9 -1 7 -13z"/>
<path d="M2294 1471 c1 -9 -4 -15 -10 -14 -6 1 -11 -4 -11 -11 0 -6 10 -12 22
-12 16 0 21 6 20 26 0 15 -5 27 -11 27 -6 0 -11 -7 -10 -16z"/>
<path d="M2822 1470 c-18 -30 -15 -41 13 -36 15 3 23 1 20 -5 -4 -5 -11 -6
-17 -3 -7 5 -8 2 -4 -5 6 -9 12 -9 25 3 9 9 27 17 39 19 12 2 25 7 29 12 5 4
3 5 -4 1 -6 -3 -18 2 -25 12 -13 18 -48 26 -48 11 0 -14 18 -19 23 -7 4 8 6 7
6 -3 1 -12 -7 -16 -28 -15 -16 0 -27 4 -24 9 2 4 9 5 14 2 5 -3 6 1 3 9 -8 20
-7 20 -22 -4z"/>
<path d="M2170 1450 c0 -5 5 -10 10 -10 6 0 10 5 10 10 0 6 -4 10 -10 10 -5 0
-10 -4 -10 -10z"/>
<path d="M2659 1426 c-1 -1 -3 -10 -5 -21 -1 -11 -5 -31 -8 -45 l-5 -25 21 25
c11 14 25 24 31 22 6 -2 5 4 -2 12 -7 8 -10 19 -7 24 4 6 -17 13 -25 8z"/>
<path d="M2200 1400 c0 -5 5 -10 10 -10 6 0 10 5 10 10 0 6 -4 10 -10 10 -5 0
-10 -4 -10 -10z"/>
<path d="M2790 1400 c-9 -6 -10 -10 -3 -10 6 0 15 5 18 10 8 12 4 12 -15 0z"/>
<path d="M2746 1372 c-3 -5 1 -9 9 -9 8 0 12 4 9 9 -3 4 -7 8 -9 8 -2 0 -6 -4
-9 -8z"/>
<path d="M2459 1338 c-8 -16 -3 -45 7 -45 10 0 11 4 3 13 -6 7 -8 18 -4 24 3
5 4 10 1 10 -3 0 -7 -1 -7 -2z"/>
<path d="M2514 1320 c0 -13 4 -16 10 -10 7 7 7 13 0 20 -6 6 -10 3 -10 -10z"/>
<path d="M2556 1332 c-3 -5 1 -17 8 -27 12 -17 13 -17 11 3 -2 26 -11 37 -19
24z"/>
<path d="M2729 1328 c-5 -18 -6 -38 -1 -34 7 8 12 36 6 36 -2 0 -4 -1 -5 -2z"/>
<path d="M3620 3800 l0 -30 -65 0 -65 0 0 -34 0 -34 65 -7 65 -7 0 -34 0 -34
89 0 90 0 3 -32 c2 -28 8 -34 31 -36 21 -3 27 -9 27 -28 0 -20 -5 -24 -32 -26
-18 0 -41 -1 -50 0 -16 2 -18 -8 -18 -68 l0 -69 108 -3 c102 -3 107 -4 110
-25 3 -22 0 -23 -62 -23 l-66 0 0 -40 0 -40 120 0 120 0 0 35 c0 31 -3 35 -25
35 -21 0 -25 5 -25 30 0 27 -3 30 -30 30 -28 0 -30 3 -30 35 l0 35 -70 0 c-68
0 -70 1 -58 21 7 11 25 23 41 26 24 5 27 10 27 44 0 37 -2 39 -30 39 -28 0
-30 3 -30 35 0 32 -2 35 -30 35 -27 0 -30 3 -30 30 0 25 -4 30 -25 30 -22 0
-25 4 -25 35 0 33 -2 35 -35 35 -33 0 -35 2 -35 35 0 32 -2 35 -30 35 -27 0
-30 -3 -30 -30z"/>
<path d="M3218 3683 c6 -2 18 -2 25 0 6 3 1 5 -13 5 -14 0 -19 -2 -12 -5z"/>
<path d="M3680 3530 c0 -16 5 -30 10 -30 10 0 14 13 11 37 -1 6 11 14 26 16
23 3 21 4 -9 6 -36 1 -38 -1 -38 -29z"/>
<path d="M3920 3075 l0 -55 38 0 37 0 -3 -339 -3 -340 36 -7 c19 -3 55 -3 80
0 l45 7 0 -33 c0 -18 3 -43 6 -55 6 -23 5 -23 -80 -23 l-86 0 0 -60 0 -60 -35
0 -35 0 0 -66 0 -66 83 3 82 4 3 -33 3 -32 -119 0 -119 0 -7 -46 c-3 -26 -6
-62 -6 -80 l0 -34 88 0 c48 0 104 3 125 6 35 6 37 8 37 45 0 37 2 39 30 39
l29 0 3 93 3 92 38 3 37 3 0 435 0 434 -40 0 -40 0 0 110 0 110 -115 0 -115 0
0 -55z m160 -95 c0 -16 -4 -30 -10 -30 -5 0 -10 5 -10 12 0 6 -7 20 -17 30
-15 17 -15 18 10 18 23 0 27 -4 27 -30z m-7 -67 c-7 -2 -19 -2 -25 0 -7 3 -2
5 12 5 14 0 19 -2 13 -5z m79 -288 l-3 -145 -35 0 -34 0 0 126 c0 69 -5 134
-10 145 -10 18 -7 19 37 19 l48 0 -3 -145z m-72 -606 c0 -23 -21 -29 -93 -29
-42 0 -57 3 -47 9 8 6 17 8 21 5 4 -2 10 0 14 6 3 6 -4 15 -17 20 -17 7 -5 9
49 7 60 -2 73 -5 73 -18z"/>
<path d="M3996 2308 c-3 -13 -6 -26 -6 -30 0 -5 30 -8 68 -8 42 0 62 4 53 9
-7 5 -10 14 -7 20 5 7 -6 11 -33 11 -22 0 -43 5 -46 10 -10 17 -22 11 -29 -12z"/>
</g>
</svg>
